# xmcd
#
# Track frame offsets:
#	150
#	16810
#	32013
#	54220
#	72173
#	91030
#	111213
#	133715
#	158060
#	175678
#	188585
#	210675
#	240913
#	265875
#	287718
#
# Disc length: 4058 seconds
#
# Revision: 0
# Processed by: cddbd v1.5.1PL0 Copyright (c) Steve Scherf et al.
# Submitted via: audiograbber 1.83.01
#
DISCID=bb0fd80f
DTITLE=Koko Taylor - South Side Lady
DYEAR=1973
DGENRE=Blues
TTITLE0=I'm a Little Mixed Up
TTITLE1=Wonder Why
TTITLE2=What Kind of Man is Thisw?
TTITLE3=Black Nights
TTITLE4=Love me to Death
TTITLE5=I Got What it Takes
TTITLE6=Big Boss Man
TTITLE7=I;m Gonna Get Lucky
TTITLE8=Twenty-Nine Ways
TTITLE9=I Love a Lover Like You
TTITLE10=I Wonder Why
TTITLE11=Wand Dang Doddle
TTITLE12=I Got What It Takes
TTITLE13=Twenty-Nine Ways
TTITLE14=I Got my Mojo Working
EXTD=
EXTT0=
EXTT1=
EXTT2=
EXTT3=
EXTT4=
EXTT5=
EXTT6=
EXTT7=
EXTT8=
EXTT9=
EXTT10=
EXTT11=
EXTT12=
EXTT13=
EXTT14=
PLAYORDER=
